<svg xmlns="http://www.w3.org/2000/svg" width="13.039" height="13.015" viewBox="0 0 13.039 13.015">
  <g id="notifications" transform="translate(0.362 0.35)">
    <path id="Path" d="M12.133,8.8c-1.448-1.449-1.666-2.176-1.666-4.491a4.309,4.309,0,1,0-8.619,0A7.282,7.282,0,0,1,1.643,6.6,5.281,5.281,0,0,1,.182,8.8.616.616,0,0,0,.617,9.852H4.034L4,10.16a2.155,2.155,0,1,0,4.309,0l-.031-.308H11.7A.616.616,0,0,0,12.133,8.8ZM6.158,11.7A1.539,1.539,0,0,1,4.619,10.16l.031-.308H7.666l.031.308A1.54,1.54,0,0,1,6.158,11.7ZM.617,9.236C2.464,7.389,2.464,6.157,2.464,4.31a3.694,3.694,0,1,1,7.388,0c0,1.847,0,3.079,1.847,4.926Z" transform="translate(0)" fill="#fff" stroke="#fff" stroke-width="0.7"/>
  </g>
</svg>
