<svg xmlns="http://www.w3.org/2000/svg" width="15.681" height="18.379" viewBox="0 0 15.681 18.379">
  <defs>
    <style>
      .cls-1 {
        fill: #7b8188;
        stroke: #7b8188;
        stroke-width: 0.3px;
      }
    </style>
  </defs>
  <g id="avatar" transform="translate(-35.922 0.15)">
    <g id="Group_2199" data-name="Group 2199" transform="translate(36.073)">
      <path id="Path_3088" data-name="Path 3088" class="cls-1" d="M140.924,9.742h.12A3.455,3.455,0,0,0,143.683,8.6c1.441-1.625,1.2-4.41,1.176-4.676a3.82,3.82,0,0,0-1.816-3.4A4.163,4.163,0,0,0,141.028,0h-.064a4.169,4.169,0,0,0-2.014.513,3.822,3.822,0,0,0-1.838,3.411c-.026.266-.266,3.051,1.176,4.676A3.441,3.441,0,0,0,140.924,9.742Zm-2.812-5.724c0-.011,0-.022,0-.03.124-2.684,2.029-2.973,2.845-2.973h.045c1.011.022,2.729.434,2.845,2.973a.073.073,0,0,0,0,.03c0,.026.266,2.572-.925,3.912a2.454,2.454,0,0,1-1.928.8h-.037a2.446,2.446,0,0,1-1.924-.8C137.854,6.6,138.108,4.04,138.112,4.017Z" transform="translate(-133.3)"/>
      <path id="Path_3089" data-name="Path 3089" class="cls-1" d="M51.45,263.9v-.011c0-.03,0-.06,0-.094-.022-.741-.071-2.475-1.7-3.029l-.037-.011a10.8,10.8,0,0,1-3.107-1.415.505.505,0,1,0-.58.827,11.661,11.661,0,0,0,3.418,1.561c.872.311.97,1.243,1,2.1a.752.752,0,0,0,0,.094,6.8,6.8,0,0,1-.079,1.157,13.778,13.778,0,0,1-6.6,1.535,13.858,13.858,0,0,1-6.6-1.539,6.434,6.434,0,0,1-.079-1.157c0-.03,0-.06,0-.094.026-.854.124-1.786,1-2.1a11.77,11.77,0,0,0,3.418-1.561.505.505,0,0,0-.58-.827,10.684,10.684,0,0,1-3.107,1.415l-.037.011c-1.625.558-1.674,2.291-1.7,3.029a.752.752,0,0,1,0,.094v.011a5.741,5.741,0,0,0,.191,1.7.48.48,0,0,0,.195.236,14.161,14.161,0,0,0,7.308,1.79,14.2,14.2,0,0,0,7.308-1.79.5.5,0,0,0,.195-.236A6.023,6.023,0,0,0,51.45,263.9Z" transform="translate(-36.073 -249.538)"/>
    </g>
  </g>
</svg>
