<svg xmlns="http://www.w3.org/2000/svg" width="14.719" height="15.289" viewBox="0 0 14.719 15.289">
  <g id="offer" transform="translate(-10.153 0.23)">
    <g id="Group_2205" data-name="Group 2205" transform="translate(10.359 -0.002)">
      <g id="Group_2204" data-name="Group 2204" transform="translate(0 0)">
        <path id="Path_3092" data-name="Path 3092" d="M23.977,7.647a.437.437,0,0,1,0-.386l.556-1.138A1.294,1.294,0,0,0,23.975,4.4L22.856,3.81a.437.437,0,0,1-.227-.312L22.41,2.251a1.3,1.3,0,0,0-1.462-1.062l-1.254.177a.437.437,0,0,1-.367-.119l-.91-.88a1.294,1.294,0,0,0-1.807,0l-.91.881a.437.437,0,0,1-.367.119l-1.254-.177a1.294,1.294,0,0,0-1.462,1.062L12.4,3.5a.437.437,0,0,1-.227.312L11.051,4.4a1.294,1.294,0,0,0-.559,1.719l.556,1.138a.437.437,0,0,1,0,.386l-.556,1.138a1.294,1.294,0,0,0,.559,1.719l1.119.594a.437.437,0,0,1,.227.312l.219,1.247a1.294,1.294,0,0,0,1.276,1.076,1.33,1.33,0,0,0,.186-.013l1.254-.177a.437.437,0,0,1,.367.119l.91.88a1.294,1.294,0,0,0,1.807,0l.91-.88a.437.437,0,0,1,.367-.119l1.254.177a1.294,1.294,0,0,0,1.462-1.062l.219-1.247a.437.437,0,0,1,.227-.312l1.119-.594a1.294,1.294,0,0,0,.559-1.719Zm-.405,2.1-1.119.594a1.292,1.292,0,0,0-.671.924l-.219,1.247a.438.438,0,0,1-.495.359l-1.254-.177a1.291,1.291,0,0,0-1.086.353l-.91.88a.438.438,0,0,1-.611,0l-.91-.88a1.29,1.29,0,0,0-.9-.366,1.32,1.32,0,0,0-.185.013l-1.254.177a.438.438,0,0,1-.495-.359l-.219-1.247a1.291,1.291,0,0,0-.671-.924l-1.119-.594a.438.438,0,0,1-.189-.582l.556-1.138a1.291,1.291,0,0,0,0-1.142l-.556-1.138a.438.438,0,0,1,.189-.582l1.119-.594a1.292,1.292,0,0,0,.671-.924L13.463,2.4a.438.438,0,0,1,.495-.359l1.254.177A1.291,1.291,0,0,0,16.3,1.864l.91-.88a.438.438,0,0,1,.611,0l.91.88a1.291,1.291,0,0,0,1.086.353l1.254-.177a.438.438,0,0,1,.495.359l.219,1.247a1.291,1.291,0,0,0,.671.924l1.119.594a.438.438,0,0,1,.189.582L23.2,6.883a1.292,1.292,0,0,0,0,1.142l.556,1.138A.438.438,0,0,1,23.571,9.744Z" transform="translate(-10.359 0.002)" fill="#7b8188" stroke="#7b8188" stroke-width="0.3"/>
      </g>
    </g>
    <g id="Group_2207" data-name="Group 2207" transform="translate(14.245 4.186)">
      <g id="Group_2206" data-name="Group 2206" transform="translate(0)">
        <path id="Path_3093" data-name="Path 3093" d="M150.2,143.917a.43.43,0,0,0-.608,0l-5.676,5.676a.43.43,0,1,0,.608.608l5.676-5.676A.43.43,0,0,0,150.2,143.917Z" transform="translate(-143.792 -143.792)" fill="#7b8188" stroke="#7b8188" stroke-width="0.3"/>
      </g>
    </g>
    <g id="Group_2209" data-name="Group 2209" transform="translate(14.216 3.584)">
      <g id="Group_2208" data-name="Group 2208" transform="translate(0)">
        <path id="Path_3094" data-name="Path 3094" d="M144.379,123.116a1.577,1.577,0,1,0,1.577,1.577A1.578,1.578,0,0,0,144.379,123.116Zm0,2.293a.717.717,0,1,1,.717-.717A.717.717,0,0,1,144.379,125.409Z" transform="translate(-142.802 -123.116)" fill="#7b8188" stroke="#7b8188" stroke-width="0.3"/>
      </g>
    </g>
    <g id="Group_2211" data-name="Group 2211" transform="translate(17.656 8.17)">
      <g id="Group_2210" data-name="Group 2210">
        <path id="Path_3095" data-name="Path 3095" d="M262.5,280.61a1.577,1.577,0,1,0,1.577,1.577A1.578,1.578,0,0,0,262.5,280.61Zm0,2.293a.717.717,0,1,1,.717-.717A.718.718,0,0,1,262.5,282.9Z" transform="translate(-260.922 -280.61)" fill="#7b8188" stroke="#7b8188" stroke-width="0.3"/>
      </g>
    </g>
  </g>
</svg>
