<svg xmlns="http://www.w3.org/2000/svg" xmlns:xlink="http://www.w3.org/1999/xlink" width="375" height="812" viewBox="0 0 375 812">
  <defs>
    <filter id="Background" x="-9" y="509.5" width="393" height="309" filterUnits="userSpaceOnUse">
      <feOffset dy="-3" input="SourceAlpha"/>
      <feGaussianBlur stdDeviation="3" result="blur"/>
      <feFlood flood-opacity="0.502"/>
      <feComposite operator="in" in2="blur"/>
      <feComposite in="SourceGraphic"/>
    </filter>
    <filter id="Key" x="281.5" y="690.5" width="93.5" height="48" filterUnits="userSpaceOnUse">
      <feOffset dy="2" input="SourceAlpha"/>
      <feGaussianBlur stdDeviation="1" result="blur-2"/>
      <feFlood flood-opacity="0.149"/>
      <feComposite operator="in" in2="blur-2"/>
      <feComposite in="SourceGraphic"/>
    </filter>
    <filter id="Key-2" x="92" y="690.5" width="190" height="48" filterUnits="userSpaceOnUse">
      <feOffset dy="2" input="SourceAlpha"/>
      <feGaussianBlur stdDeviation="1" result="blur-3"/>
      <feFlood flood-opacity="0.149"/>
      <feComposite operator="in" in2="blur-3"/>
      <feComposite in="SourceGraphic"/>
    </filter>
    <filter id="Key-3" x="0" y="690.5" width="93" height="48" filterUnits="userSpaceOnUse">
      <feOffset dy="2" input="SourceAlpha"/>
      <feGaussianBlur stdDeviation="1" result="blur-4"/>
      <feFlood flood-opacity="0.149"/>
      <feComposite operator="in" in2="blur-4"/>
      <feComposite in="SourceGraphic"/>
    </filter>
    <filter id="Key-4" x="327" y="638.5" width="48" height="48" filterUnits="userSpaceOnUse">
      <feOffset dy="2" input="SourceAlpha"/>
      <feGaussianBlur stdDeviation="1" result="blur-5"/>
      <feFlood flood-opacity="0.149"/>
      <feComposite operator="in" in2="blur-5"/>
      <feComposite in="SourceGraphic"/>
    </filter>
    <filter id="Key-5" x="281.5" y="638.5" width="37.5" height="48" filterUnits="userSpaceOnUse">
      <feOffset dy="2" input="SourceAlpha"/>
      <feGaussianBlur stdDeviation="1" result="blur-6"/>
      <feFlood flood-opacity="0.149"/>
      <feComposite operator="in" in2="blur-6"/>
      <feComposite in="SourceGraphic"/>
    </filter>
    <filter id="Key-6" x="244" y="638.5" width="37.5" height="48" filterUnits="userSpaceOnUse">
      <feOffset dy="2" input="SourceAlpha"/>
      <feGaussianBlur stdDeviation="1" result="blur-7"/>
      <feFlood flood-opacity="0.149"/>
      <feComposite operator="in" in2="blur-7"/>
      <feComposite in="SourceGraphic"/>
    </filter>
    <filter id="Key-7" x="206.5" y="638.5" width="37.5" height="48" filterUnits="userSpaceOnUse">
      <feOffset dy="2" input="SourceAlpha"/>
      <feGaussianBlur stdDeviation="1" result="blur-8"/>
      <feFlood flood-opacity="0.149"/>
      <feComposite operator="in" in2="blur-8"/>
      <feComposite in="SourceGraphic"/>
    </filter>
    <filter id="Key-8" x="169" y="638.5" width="37.5" height="48" filterUnits="userSpaceOnUse">
      <feOffset dy="2" input="SourceAlpha"/>
      <feGaussianBlur stdDeviation="1" result="blur-9"/>
      <feFlood flood-opacity="0.149"/>
      <feComposite operator="in" in2="blur-9"/>
      <feComposite in="SourceGraphic"/>
    </filter>
    <filter id="Key-9" x="131" y="638.5" width="37.5" height="48" filterUnits="userSpaceOnUse">
      <feOffset dy="2" input="SourceAlpha"/>
      <feGaussianBlur stdDeviation="1" result="blur-10"/>
      <feFlood flood-opacity="0.149"/>
      <feComposite operator="in" in2="blur-10"/>
      <feComposite in="SourceGraphic"/>
    </filter>
    <filter id="Key-10" x="93.5" y="638.5" width="37.5" height="48" filterUnits="userSpaceOnUse">
      <feOffset dy="2" input="SourceAlpha"/>
      <feGaussianBlur stdDeviation="1" result="blur-11"/>
      <feFlood flood-opacity="0.149"/>
      <feComposite operator="in" in2="blur-11"/>
      <feComposite in="SourceGraphic"/>
    </filter>
    <filter id="Key-11" x="56" y="638.5" width="37.5" height="48" filterUnits="userSpaceOnUse">
      <feOffset dy="2" input="SourceAlpha"/>
      <feGaussianBlur stdDeviation="1" result="blur-12"/>
      <feFlood flood-opacity="0.149"/>
      <feComposite operator="in" in2="blur-12"/>
      <feComposite in="SourceGraphic"/>
    </filter>
    <filter id="Key-12" x="0" y="638.5" width="48" height="48" filterUnits="userSpaceOnUse">
      <feOffset dy="2" input="SourceAlpha"/>
      <feGaussianBlur stdDeviation="1" result="blur-13"/>
      <feFlood flood-opacity="0.149"/>
      <feComposite operator="in" in2="blur-13"/>
      <feComposite in="SourceGraphic"/>
    </filter>
    <filter id="Key-13" x="319" y="584.5" width="37.5" height="48" filterUnits="userSpaceOnUse">
      <feOffset dy="2" input="SourceAlpha"/>
      <feGaussianBlur stdDeviation="1" result="blur-14"/>
      <feFlood flood-opacity="0.149"/>
      <feComposite operator="in" in2="blur-14"/>
      <feComposite in="SourceGraphic"/>
    </filter>
    <filter id="Key-14" x="281.5" y="584.5" width="37.5" height="48" filterUnits="userSpaceOnUse">
      <feOffset dy="2" input="SourceAlpha"/>
      <feGaussianBlur stdDeviation="1" result="blur-15"/>
      <feFlood flood-opacity="0.149"/>
      <feComposite operator="in" in2="blur-15"/>
      <feComposite in="SourceGraphic"/>
    </filter>
    <filter id="Key-15" x="244" y="584.5" width="37.5" height="48" filterUnits="userSpaceOnUse">
      <feOffset dy="2" input="SourceAlpha"/>
      <feGaussianBlur stdDeviation="1" result="blur-16"/>
      <feFlood flood-opacity="0.149"/>
      <feComposite operator="in" in2="blur-16"/>
      <feComposite in="SourceGraphic"/>
    </filter>
    <filter id="Key-16" x="206.5" y="584.5" width="37.5" height="48" filterUnits="userSpaceOnUse">
      <feOffset dy="2" input="SourceAlpha"/>
      <feGaussianBlur stdDeviation="1" result="blur-17"/>
      <feFlood flood-opacity="0.149"/>
      <feComposite operator="in" in2="blur-17"/>
      <feComposite in="SourceGraphic"/>
    </filter>
    <filter id="Key-17" x="169" y="584.5" width="37.5" height="48" filterUnits="userSpaceOnUse">
      <feOffset dy="2" input="SourceAlpha"/>
      <feGaussianBlur stdDeviation="1" result="blur-18"/>
      <feFlood flood-opacity="0.149"/>
      <feComposite operator="in" in2="blur-18"/>
      <feComposite in="SourceGraphic"/>
    </filter>
    <filter id="Key-18" x="131" y="584.5" width="37.5" height="48" filterUnits="userSpaceOnUse">
      <feOffset dy="2" input="SourceAlpha"/>
      <feGaussianBlur stdDeviation="1" result="blur-19"/>
      <feFlood flood-opacity="0.149"/>
      <feComposite operator="in" in2="blur-19"/>
      <feComposite in="SourceGraphic"/>
    </filter>
    <filter id="Key-19" x="93.5" y="584.5" width="37.5" height="48" filterUnits="userSpaceOnUse">
      <feOffset dy="2" input="SourceAlpha"/>
      <feGaussianBlur stdDeviation="1" result="blur-20"/>
      <feFlood flood-opacity="0.149"/>
      <feComposite operator="in" in2="blur-20"/>
      <feComposite in="SourceGraphic"/>
    </filter>
    <filter id="Key-20" x="56" y="584.5" width="37.5" height="48" filterUnits="userSpaceOnUse">
      <feOffset dy="2" input="SourceAlpha"/>
      <feGaussianBlur stdDeviation="1" result="blur-21"/>
      <feFlood flood-opacity="0.149"/>
      <feComposite operator="in" in2="blur-21"/>
      <feComposite in="SourceGraphic"/>
    </filter>
    <filter id="Key-21" x="18.5" y="584.5" width="37.5" height="48" filterUnits="userSpaceOnUse">
      <feOffset dy="2" input="SourceAlpha"/>
      <feGaussianBlur stdDeviation="1" result="blur-22"/>
      <feFlood flood-opacity="0.149"/>
      <feComposite operator="in" in2="blur-22"/>
      <feComposite in="SourceGraphic"/>
    </filter>
    <filter id="Key-22" x="337.5" y="530.5" width="37.5" height="48" filterUnits="userSpaceOnUse">
      <feOffset dy="2" input="SourceAlpha"/>
      <feGaussianBlur stdDeviation="1" result="blur-23"/>
      <feFlood flood-opacity="0.149"/>
      <feComposite operator="in" in2="blur-23"/>
      <feComposite in="SourceGraphic"/>
    </filter>
    <filter id="Key-23" x="300" y="530.5" width="37.5" height="48" filterUnits="userSpaceOnUse">
      <feOffset dy="2" input="SourceAlpha"/>
      <feGaussianBlur stdDeviation="1" result="blur-24"/>
      <feFlood flood-opacity="0.149"/>
      <feComposite operator="in" in2="blur-24"/>
      <feComposite in="SourceGraphic"/>
    </filter>
    <filter id="Key-24" x="262.5" y="530.5" width="37.5" height="48" filterUnits="userSpaceOnUse">
      <feOffset dy="2" input="SourceAlpha"/>
      <feGaussianBlur stdDeviation="1" result="blur-25"/>
      <feFlood flood-opacity="0.149"/>
      <feComposite operator="in" in2="blur-25"/>
      <feComposite in="SourceGraphic"/>
    </filter>
    <filter id="Key-25" x="225" y="530.5" width="37.5" height="48" filterUnits="userSpaceOnUse">
      <feOffset dy="2" input="SourceAlpha"/>
      <feGaussianBlur stdDeviation="1" result="blur-26"/>
      <feFlood flood-opacity="0.149"/>
      <feComposite operator="in" in2="blur-26"/>
      <feComposite in="SourceGraphic"/>
    </filter>
    <filter id="Key-26" x="187.5" y="530.5" width="37.5" height="48" filterUnits="userSpaceOnUse">
      <feOffset dy="2" input="SourceAlpha"/>
      <feGaussianBlur stdDeviation="1" result="blur-27"/>
      <feFlood flood-opacity="0.149"/>
      <feComposite operator="in" in2="blur-27"/>
      <feComposite in="SourceGraphic"/>
    </filter>
    <filter id="Key-27" x="150" y="530.5" width="37.5" height="48" filterUnits="userSpaceOnUse">
      <feOffset dy="2" input="SourceAlpha"/>
      <feGaussianBlur stdDeviation="1" result="blur-28"/>
      <feFlood flood-opacity="0.149"/>
      <feComposite operator="in" in2="blur-28"/>
      <feComposite in="SourceGraphic"/>
    </filter>
    <filter id="Key-28" x="112.5" y="530.5" width="37.5" height="48" filterUnits="userSpaceOnUse">
      <feOffset dy="2" input="SourceAlpha"/>
      <feGaussianBlur stdDeviation="1" result="blur-29"/>
      <feFlood flood-opacity="0.149"/>
      <feComposite operator="in" in2="blur-29"/>
      <feComposite in="SourceGraphic"/>
    </filter>
    <filter id="Key-29" x="75" y="530.5" width="37.5" height="48" filterUnits="userSpaceOnUse">
      <feOffset dy="2" input="SourceAlpha"/>
      <feGaussianBlur stdDeviation="1" result="blur-30"/>
      <feFlood flood-opacity="0.149"/>
      <feComposite operator="in" in2="blur-30"/>
      <feComposite in="SourceGraphic"/>
    </filter>
    <filter id="Key-30" x="37.5" y="530.5" width="37.5" height="48" filterUnits="userSpaceOnUse">
      <feOffset dy="2" input="SourceAlpha"/>
      <feGaussianBlur stdDeviation="1" result="blur-31"/>
      <feFlood flood-opacity="0.149"/>
      <feComposite operator="in" in2="blur-31"/>
      <feComposite in="SourceGraphic"/>
    </filter>
    <filter id="Key-31" x="0" y="530.5" width="37.5" height="48" filterUnits="userSpaceOnUse">
      <feOffset dy="2" input="SourceAlpha"/>
      <feGaussianBlur stdDeviation="1" result="blur-32"/>
      <feFlood flood-opacity="0.149"/>
      <feComposite operator="in" in2="blur-32"/>
      <feComposite in="SourceGraphic"/>
    </filter>
    <filter id="top-shade" x="-9" y="-6" width="393" height="96" filterUnits="userSpaceOnUse">
      <feOffset dy="3" input="SourceAlpha"/>
      <feGaussianBlur stdDeviation="3" result="blur-33"/>
      <feFlood flood-opacity="0.471"/>
      <feComposite operator="in" in2="blur-33"/>
      <feComposite in="SourceGraphic"/>
    </filter>
    <filter id="Path_" x="14.75" y="35.75" width="37.13" height="19.664" filterUnits="userSpaceOnUse">
      <feOffset dy="3" input="SourceAlpha"/>
      <feGaussianBlur stdDeviation="3" result="blur-34"/>
      <feFlood flood-opacity="0.541"/>
      <feComposite operator="in" in2="blur-34"/>
      <feComposite in="SourceGraphic"/>
    </filter>
    <filter id="Path_2" x="14.75" y="41.325" width="37.13" height="19.664" filterUnits="userSpaceOnUse">
      <feOffset dy="3" input="SourceAlpha"/>
      <feGaussianBlur stdDeviation="3" result="blur-35"/>
      <feFlood flood-opacity="0.541"/>
      <feComposite operator="in" in2="blur-35"/>
      <feComposite in="SourceGraphic"/>
    </filter>
    <filter id="Path_3" x="14.75" y="46.9" width="31.308" height="19.664" filterUnits="userSpaceOnUse">
      <feOffset dy="3" input="SourceAlpha"/>
      <feGaussianBlur stdDeviation="3" result="blur-36"/>
      <feFlood flood-opacity="0.541"/>
      <feComposite operator="in" in2="blur-36"/>
      <feComposite in="SourceGraphic"/>
    </filter>
    <clipPath id="clip-path">
      <rect width="375" height="33" fill="none"/>
    </clipPath>
    <clipPath id="clip-Search">
      <rect width="375" height="812"/>
    </clipPath>
  </defs>
  <g id="Search" clip-path="url(#clip-Search)">
    <rect width="375" height="812" fill="#232d3b"/>
    <g id="Search-2" data-name="Search" transform="translate(0 34)">
      <rect id="Rectangle" width="41.72" height="324.28" rx="2" transform="translate(348.28 69) rotate(90)" fill="#fff"/>
      <path id="Rectangle-2" data-name="Rectangle" d="M0,0H40.72a2,2,0,0,1,2,2V39.72a2,2,0,0,1-2,2H0a0,0,0,0,1,0,0V0A0,0,0,0,1,0,0Z" transform="translate(306.28 69)" fill="#4fb948"/>
      <g id="search-3" data-name="search" transform="translate(319.483 81.379)">
        <path id="Shape" d="M14.871,16.292a.848.848,0,0,1-.617-.263l-3.907-4.064a6.582,6.582,0,1,1,1.266-1.159l3.877,4.033a.858.858,0,0,1-.618,1.452ZM6.577,1.715a4.862,4.862,0,1,0,4.862,4.862A4.867,4.867,0,0,0,6.577,1.715Z" transform="translate(0 0)" fill="#fff"/>
      </g>
      <text id="Type_here" data-name="Type here" transform="translate(38.521 93.184)" fill="#1e262c" font-size="12" font-family="SegoeUI, Segoe UI"><tspan x="0" y="0">Type here</tspan></text>
    </g>
    <g id="keypad-dark" transform="translate(0 521.5)">
      <g transform="matrix(1, 0, 0, 1, 0, -521.5)" filter="url(#Background)">
        <rect id="Background-2" data-name="Background" width="375" height="291" transform="translate(0 521.5)" fill="#1c2634"/>
      </g>
      <path id="Exclusion_10" data-name="Exclusion 10" d="M11.5,25h-8a.833.833,0,0,1,0-1.667h.03v-.011H6.677V20.787A7.547,7.547,0,0,1,0,13.28c0-.02,0-.039,0-.058s0-.03,0-.045V11.267a.762.762,0,0,1-.006-.1.833.833,0,0,1,1.667,0c0,.027,0,.055,0,.086v2.29l0,.008c0,.014,0,.029,0,.044s0,.031,0,.046v.313h.016a5.871,5.871,0,0,0,5.645,5.377H7.66a5.87,5.87,0,0,0,5.647-5.377h.02V11.174h.006v-.01a.833.833,0,0,1,1.667,0,.738.738,0,0,1,0,.077V13.28h-.01a7.558,7.558,0,0,1-6.66,7.507v2.534h3.14v.011H11.5A.833.833,0,0,1,11.5,25Zm-4-7a4.513,4.513,0,0,1-4.264-3.237,6.18,6.18,0,0,1-.206-1.343C3,12.949,3,12.463,3,11.994V7.664c0-.131,0-.378,0-.679,0-.847,0-2.128,0-2.4a4.772,4.772,0,0,1,.234-1.344,4.426,4.426,0,0,1,8.527,0,6.373,6.373,0,0,1,.234,1.344c.022.371.011,1.606,0,2.423,0,.291,0,.53,0,.661v4.264c0,.491,0,1-.028,1.486a6.291,6.291,0,0,1-.206,1.343,4.393,4.393,0,0,1-1.584,2.307A4.344,4.344,0,0,1,7.5,17.994Z" transform="translate(330 241.003)" fill="#fff"/>
      <path id="Dictation-path" d="M5.661,11c0,.32-.007.427-.027.747a3.945,3.945,0,0,1-.13.86,2.812,2.812,0,0,1-.99,1.487,2.74,2.74,0,0,1-3.363,0A2.8,2.8,0,0,1,.157,12.6a4.157,4.157,0,0,1-.13-.86c-.017-.32-.02-.427-.02-.747,0-4.433-.02-7.72.007-8.073a4.414,4.414,0,0,1,.143-.86A2.8,2.8,0,0,1,1.151.577a2.74,2.74,0,0,1,3.363,0A2.812,2.812,0,0,1,5.5,2.063a3.992,3.992,0,0,1,.16.86C5.687,3.3,5.661,6.55,5.661,11Z" transform="translate(334.666 242.67)" fill="#fff"/>
      <path id="Exclusion_14" data-name="Exclusion 14" d="M13.25,26.5A13.25,13.25,0,0,1,3.881,3.881,13.25,13.25,0,1,1,22.619,22.619,13.16,13.16,0,0,1,13.25,26.5Zm0-24.956A11.706,11.706,0,1,0,24.955,13.251,11.633,11.633,0,0,0,13.25,1.544Zm0,20.984a8.963,8.963,0,0,1-8.816-6.906.9.9,0,0,1,.154-.758.969.969,0,0,1,.749-.284,1.868,1.868,0,0,1,.442.055,25.823,25.823,0,0,0,7.169,1.015l.3,0h.012l.286,0a25.83,25.83,0,0,0,7.161-1.012,1.856,1.856,0,0,1,.456-.059.959.959,0,0,1,.736.271.852.852,0,0,1,.181.683,8.381,8.381,0,0,1-3.012,4.928A9.249,9.249,0,0,1,13.248,22.528ZM6.419,15.977a.416.416,0,0,0-.45.318,1.2,1.2,0,0,0,.662,1.172,15.467,15.467,0,0,0,6.451,1.4h.178A15.343,15.343,0,0,0,20,17.414a1.185,1.185,0,0,0,.563-1.147.418.418,0,0,0-.443-.294,1.324,1.324,0,0,0-.438.09l-.028.01a23.227,23.227,0,0,1-6.127.823l-.269,0a20.5,20.5,0,0,1-6.508-.861A1.188,1.188,0,0,0,6.419,15.977Zm2.64-5.393A1.549,1.549,0,0,1,7.511,9.037,1.53,1.53,0,0,1,9.041,7.5h.034a1.532,1.532,0,0,1,1.531,1.534A1.549,1.549,0,0,1,9.059,10.584Z" transform="translate(24.5 240)" fill="#fff"/>
      <path id="Emoji-path" d="M1.548,0A1.53,1.53,0,0,0,0,1.534a1.548,1.548,0,1,0,3.1,0A1.53,1.53,0,0,0,1.548,0Z" transform="translate(40.402 247.503)" fill="#fff"/>
      <g transform="matrix(1, 0, 0, 1, 0, -521.5)" filter="url(#Key)">
        <rect id="Key-32" data-name="Key" width="87.5" height="42" rx="5" transform="translate(284.5 691.5)" fill="#313848"/>
      </g>
      <text id="return" transform="translate(328 197.5)" fill="#fff" font-size="16" font-family="Poppins-Regular, Poppins" letter-spacing="-0.02em"><tspan x="-23.28" y="0">return</tspan></text>
      <g transform="matrix(1, 0, 0, 1, 0, -521.5)" filter="url(#Key-2)">
        <rect id="Key-33" data-name="Key" width="184" height="42" rx="5" transform="translate(95 691.5)" fill="#313848"/>
      </g>
      <text id="space" transform="translate(187 198)" fill="#fff" font-size="16" font-family="Poppins-Regular, Poppins"><tspan x="-24.168" y="0" letter-spacing="-0.02em">spac</tspan><tspan y="0">e</tspan></text>
      <g transform="matrix(1, 0, 0, 1, 0, -521.5)" filter="url(#Key-3)">
        <rect id="Key-34" data-name="Key" width="87" height="42" rx="5" transform="translate(3 691.5)" fill="#313848"/>
      </g>
      <text id="_123" data-name="123" transform="translate(46.5 199)" fill="#fff" font-size="16" font-family="Poppins-Regular, Poppins" letter-spacing="-0.02em"><tspan x="-11.552" y="0">123</tspan></text>
      <g transform="matrix(1, 0, 0, 1, 0, -521.5)" filter="url(#Key-4)">
        <rect id="Key-35" data-name="Key" width="42" height="42" rx="5" transform="translate(330 639.5)" fill="#313848"/>
      </g>
      <path id="Back" d="M19.377,17H8.291a1,1,0,0,1-.707-.293L.437,9.561a1.5,1.5,0,0,1,0-2.121L7.584.293A1.006,1.006,0,0,1,8.291,0H19.377a3.5,3.5,0,0,1,3.5,3.5v10A3.5,3.5,0,0,1,19.377,17ZM8.584,1.5a.5.5,0,0,0-.354.146L2.083,7.793a1,1,0,0,0,0,1.414L8.23,15.354a.5.5,0,0,0,.354.146H19.377a2,2,0,0,0,2-2V3.5a2,2,0,0,0-2-2Z" transform="translate(339.623 130.5)" fill="#fff"/>
      <g transform="matrix(1, 0, 0, 1, 0, -521.5)" filter="url(#Key-5)">
        <rect id="Key-36" data-name="Key" width="31.5" height="42" rx="5" transform="translate(284.5 639.5)" fill="#313848"/>
      </g>
      <text id="m" transform="translate(300.25 146.25)" fill="#fff" font-size="21" font-family="Poppins-Regular, Poppins"><tspan x="-9.04" y="0">M</tspan></text>
      <g transform="matrix(1, 0, 0, 1, 0, -521.5)" filter="url(#Key-6)">
        <rect id="Key-37" data-name="Key" width="31.5" height="42" rx="5" transform="translate(247 639.5)" fill="#313848"/>
      </g>
      <text id="n" transform="translate(262.75 146.25)" fill="#fff" font-size="21" font-family="Poppins-Regular, Poppins"><tspan x="-7.381" y="0">N</tspan></text>
      <g transform="matrix(1, 0, 0, 1, 0, -521.5)" filter="url(#Key-7)">
        <rect id="Key-38" data-name="Key" width="31.5" height="42" rx="5" transform="translate(209.5 639.5)" fill="#313848"/>
      </g>
      <text id="b" transform="translate(225.5 146.25)" fill="#fff" font-size="21" font-family="Poppins-Regular, Poppins"><tspan x="-6.437" y="0">B</tspan></text>
      <g transform="matrix(1, 0, 0, 1, 0, -521.5)" filter="url(#Key-8)">
        <rect id="Key-39" data-name="Key" width="31.5" height="42" rx="5" transform="translate(172 639.5)" fill="#313848"/>
      </g>
      <text id="v" transform="translate(187.75 146.25)" fill="#fff" font-size="21" font-family="Poppins-Regular, Poppins"><tspan x="-7.098" y="0">V</tspan></text>
      <g transform="matrix(1, 0, 0, 1, 0, -521.5)" filter="url(#Key-9)">
        <rect id="Key-40" data-name="Key" width="31.5" height="42" rx="5" transform="translate(134 639.5)" fill="#313848"/>
      </g>
      <text id="c" transform="translate(149.75 146.25)" fill="#fff" font-size="21" font-family="Poppins-Regular, Poppins"><tspan x="-8.106" y="0">C</tspan></text>
      <g transform="matrix(1, 0, 0, 1, 0, -521.5)" filter="url(#Key-10)">
        <rect id="Key-41" data-name="Key" width="31.5" height="42" rx="5" transform="translate(96.5 639.5)" fill="#313848"/>
      </g>
      <text id="x" transform="translate(112 146.25)" fill="#fff" font-size="21" font-family="Poppins-Regular, Poppins"><tspan x="-6.52" y="0">X</tspan></text>
      <g transform="matrix(1, 0, 0, 1, 0, -521.5)" filter="url(#Key-11)">
        <rect id="Key-42" data-name="Key" width="31.5" height="42" rx="5" transform="translate(59 639.5)" fill="#313848"/>
      </g>
      <text id="z" transform="translate(74.5 146.25)" fill="#fff" font-size="21" font-family="Poppins-Regular, Poppins"><tspan x="-5.681" y="0">Z</tspan></text>
      <g transform="matrix(1, 0, 0, 1, 0, -521.5)" filter="url(#Key-12)">
        <rect id="Key-43" data-name="Key" width="42" height="42" rx="5" transform="translate(3 639.5)" fill="#313848"/>
      </g>
      <path id="Shift" d="M10.241.295a1,1,0,0,0-1.414,0L2.448,6.673a2,2,0,0,0,1.414,3.414H5.034v5a1,1,0,0,0,1,1h7a1,1,0,0,0,1-1v-5h1.172A2,2,0,0,0,16.62,6.673Z" transform="translate(14.466 130.913)" fill="#fff"/>
      <g transform="matrix(1, 0, 0, 1, 0, -521.5)" filter="url(#Key-13)">
        <rect id="Key-44" data-name="Key" width="31.5" height="42" rx="5" transform="translate(322 585.5)" fill="#313848"/>
      </g>
      <text id="l" transform="translate(337.5 92.25)" fill="#fff" font-size="21" font-family="Poppins-Regular, Poppins"><tspan x="-4.536" y="0">L</tspan></text>
      <g transform="matrix(1, 0, 0, 1, 0, -521.5)" filter="url(#Key-14)">
        <rect id="Key-45" data-name="Key" width="31.5" height="42" rx="5" transform="translate(284.5 585.5)" fill="#313848"/>
      </g>
      <text id="k" transform="translate(300.5 92.25)" fill="#fff" font-size="21" font-family="Poppins-Regular, Poppins"><tspan x="-6.289" y="0">K</tspan></text>
      <g transform="matrix(1, 0, 0, 1, 0, -521.5)" filter="url(#Key-15)">
        <rect id="Key-46" data-name="Key" width="31.5" height="42" rx="5" transform="translate(247 585.5)" fill="#313848"/>
      </g>
      <text id="j" transform="translate(262.25 92.25)" fill="#fff" font-size="21" font-family="Poppins-Regular, Poppins"><tspan x="-5.565" y="0">J</tspan></text>
      <g transform="matrix(1, 0, 0, 1, 0, -521.5)" filter="url(#Key-16)">
        <rect id="Key-47" data-name="Key" width="31.5" height="42" rx="5" transform="translate(209.5 585.5)" fill="#313848"/>
      </g>
      <text id="h" transform="translate(225.25 92.25)" fill="#fff" font-size="21" font-family="Poppins-Regular, Poppins"><tspan x="-7.255" y="0">H</tspan></text>
      <g transform="matrix(1, 0, 0, 1, 0, -521.5)" filter="url(#Key-17)">
        <rect id="Key-48" data-name="Key" width="31.5" height="42" rx="5" transform="translate(172 585.5)" fill="#313848"/>
      </g>
      <text id="g" transform="translate(188 92.25)" fill="#fff" font-size="21" font-family="Poppins-Regular, Poppins"><tspan x="-8.169" y="0">G</tspan></text>
      <g transform="matrix(1, 0, 0, 1, 0, -521.5)" filter="url(#Key-18)">
        <rect id="Key-49" data-name="Key" width="31.5" height="42" rx="5" transform="translate(134 585.5)" fill="#313848"/>
      </g>
      <text id="f" transform="translate(149.5 92.25)" fill="#fff" font-size="21" font-family="Poppins-Regular, Poppins"><tspan x="-5.292" y="0">F</tspan></text>
      <g transform="matrix(1, 0, 0, 1, 0, -521.5)" filter="url(#Key-19)">
        <rect id="Key-50" data-name="Key" width="31.5" height="42" rx="5" transform="translate(96.5 585.5)" fill="#313848"/>
      </g>
      <text id="d" transform="translate(112.25 92.25)" fill="#fff" font-size="21" font-family="Poppins-Regular, Poppins"><tspan x="-7.424" y="0">D</tspan></text>
      <g transform="matrix(1, 0, 0, 1, 0, -521.5)" filter="url(#Key-20)">
        <rect id="Key-51" data-name="Key" width="31.5" height="42" rx="5" transform="translate(59 585.5)" fill="#313848"/>
      </g>
      <text id="s" transform="translate(74.75 92.25)" fill="#fff" font-size="21" font-family="Poppins-Regular, Poppins"><tspan x="-6.163" y="0">S</tspan></text>
      <g transform="matrix(1, 0, 0, 1, 0, -521.5)" filter="url(#Key-21)">
        <rect id="Key-52" data-name="Key" width="31.5" height="42" rx="5" transform="translate(21.5 585.5)" fill="#313848"/>
      </g>
      <text id="a" transform="translate(37.25 92.25)" fill="#fff" font-size="21" font-family="Poppins-Regular, Poppins"><tspan x="-7.077" y="0">A</tspan></text>
      <g transform="matrix(1, 0, 0, 1, 0, -521.5)" filter="url(#Key-22)">
        <rect id="Key-53" data-name="Key" width="31.5" height="42" rx="5" transform="translate(340.5 531.5)" fill="#313848"/>
      </g>
      <text id="p" transform="translate(356.25 38.25)" fill="#fff" font-size="21" font-family="Poppins-Regular, Poppins"><tspan x="-6.079" y="0">P</tspan></text>
      <g transform="matrix(1, 0, 0, 1, 0, -521.5)" filter="url(#Key-23)">
        <rect id="Key-54" data-name="Key" width="31.5" height="42" rx="5" transform="translate(303 531.5)" fill="#313848"/>
      </g>
      <text id="o" transform="translate(318.75 38.25)" fill="#fff" font-size="21" font-family="Poppins-Regular, Poppins"><tspan x="-8.253" y="0">O</tspan></text>
      <g transform="matrix(1, 0, 0, 1, 0, -521.5)" filter="url(#Key-24)">
        <rect id="Key-55" data-name="Key" width="31.5" height="42" rx="5" transform="translate(265.5 531.5)" fill="#313848"/>
      </g>
      <text id="i" transform="translate(281 38.25)" fill="#fff" font-size="21" font-family="Poppins-Regular, Poppins"><tspan x="-2.583" y="0">I</tspan></text>
      <g transform="matrix(1, 0, 0, 1, 0, -521.5)" filter="url(#Key-25)">
        <rect id="Key-56" data-name="Key" width="31.5" height="42" rx="5" transform="translate(228 531.5)" fill="#313848"/>
      </g>
      <text id="u" transform="translate(243.5 38.25)" fill="#fff" font-size="21" font-family="Poppins-Regular, Poppins"><tspan x="-7.088" y="0">U</tspan></text>
      <g transform="matrix(1, 0, 0, 1, 0, -521.5)" filter="url(#Key-26)">
        <rect id="Key-57" data-name="Key" width="31.5" height="42" rx="5" transform="translate(190.5 531.5)" fill="#313848"/>
      </g>
      <text id="y" transform="translate(206.5 38.25)" fill="#fff" font-size="21" font-family="Poppins-Regular, Poppins"><tspan x="-6.132" y="0">Y</tspan></text>
      <g transform="matrix(1, 0, 0, 1, 0, -521.5)" filter="url(#Key-27)">
        <rect id="Key-58" data-name="Key" width="31.5" height="42" rx="5" transform="translate(153 531.5)" fill="#313848"/>
      </g>
      <text id="t" transform="translate(168.5 38.25)" fill="#fff" font-size="21" font-family="Poppins-Regular, Poppins"><tspan x="-5.681" y="0">T</tspan></text>
      <g transform="matrix(1, 0, 0, 1, 0, -521.5)" filter="url(#Key-28)">
        <rect id="Key-59" data-name="Key" width="31.5" height="42" rx="5" transform="translate(115.5 531.5)" fill="#313848"/>
      </g>
      <text id="r" transform="translate(131.25 38.25)" fill="#fff" font-size="21" font-family="Poppins-Regular, Poppins"><tspan x="-6.384" y="0">R</tspan></text>
      <g transform="matrix(1, 0, 0, 1, 0, -521.5)" filter="url(#Key-29)">
        <rect id="Key-60" data-name="Key" width="31.5" height="42" rx="5" transform="translate(78 531.5)" fill="#313848"/>
      </g>
      <text id="e" transform="translate(93.75 38.25)" fill="#fff" font-size="21" font-family="Poppins-Regular, Poppins"><tspan x="-5.386" y="0">E</tspan></text>
      <g transform="matrix(1, 0, 0, 1, 0, -521.5)" filter="url(#Key-30)">
        <rect id="Key-61" data-name="Key" width="31.5" height="42" rx="5" transform="translate(40.5 531.5)" fill="#313848"/>
      </g>
      <text id="w" transform="translate(56 38.25)" fill="#fff" font-size="21" font-family="Poppins-Regular, Poppins"><tspan x="-10.248" y="0">W</tspan></text>
      <g transform="matrix(1, 0, 0, 1, 0, -521.5)" filter="url(#Key-31)">
        <rect id="Key-62" data-name="Key" width="31.5" height="42" rx="5" transform="translate(3 531.5)" fill="#313848"/>
      </g>
      <text id="q" transform="translate(18.75 38.25)" fill="#fff" font-size="21" font-family="Poppins-Regular, Poppins"><tspan x="-8.274" y="0">Q</tspan></text>
    </g>
    <g transform="matrix(1, 0, 0, 1, 0, 0)" filter="url(#top-shade)">
      <rect id="top-shade-2" data-name="top-shade" width="375" height="78" fill="#1c2634"/>
    </g>
    <g id="top-bar" transform="translate(0 3)">
      <g id="menu" transform="translate(24 39)">
        <g transform="matrix(1, 0, 0, 1, -24, -42)" filter="url(#Path_)">
          <path id="Path_4" data-name="Path " d="M18.048,97.407H.582a.582.582,0,0,1,0-1.164H18.048a.582.582,0,1,1,0,1.164Z" transform="translate(24 -54.24)" fill="#fff" stroke="#fff" stroke-width="0.5"/>
        </g>
        <g transform="matrix(1, 0, 0, 1, -24, -42)" filter="url(#Path_2)">
          <path id="Path_5" data-name="Path " d="M.582,180.455H18.048a.582.582,0,0,1,0,1.164H.582a.582.582,0,0,1,0-1.164Z" transform="translate(24 -132.88)" fill="#fff" stroke="#fff" stroke-width="0.5"/>
        </g>
        <g transform="matrix(1, 0, 0, 1, -24, -42)" filter="url(#Path_3)">
          <path id="Path_6" data-name="Path " d="M120.885,264.667h11.644a.582.582,0,1,1,0,1.164H120.885a.582.582,0,1,1,0-1.164Z" transform="translate(-96.3 -211.52)" fill="#fff" stroke="#fff" stroke-width="0.5"/>
        </g>
      </g>
      <g id="notifications" transform="translate(336.685 39)">
        <path id="Path" d="M12.133,8.8c-1.448-1.449-1.666-2.176-1.666-4.491a4.309,4.309,0,1,0-8.619,0A7.282,7.282,0,0,1,1.643,6.6,5.281,5.281,0,0,1,.182,8.8.616.616,0,0,0,.617,9.852H4.034L4,10.16a2.155,2.155,0,1,0,4.309,0l-.031-.308H11.7A.616.616,0,0,0,12.133,8.8ZM6.158,11.7A1.539,1.539,0,0,1,4.619,10.16l.031-.308H7.666l.031.308A1.54,1.54,0,0,1,6.158,11.7ZM.617,9.236C2.464,7.389,2.464,6.157,2.464,4.31a3.694,3.694,0,1,1,7.388,0c0,1.847,0,3.079,1.847,4.926Z" transform="translate(0)" fill="#fff" stroke="#fff" stroke-width="0.7"/>
      </g>
      <text id="Search-4" data-name="Search" transform="translate(162 50)" fill="#fff" font-size="16" font-family="SegoeUI, Segoe UI" letter-spacing="0.02em"><tspan x="0" y="0">Search</tspan></text>
    </g>
    <g id="Status_Bars" data-name="Status Bars" clip-path="url(#clip-path)">
      <rect id="Rectangle-3" data-name="Rectangle" width="375" height="33" fill="none"/>
      <g id="Group_5" data-name="Group 5" transform="translate(289 11)">
        <g id="Battery" transform="translate(42 0.333)">
          <g id="Border" fill="none" stroke="#fff" stroke-miterlimit="10" stroke-width="1" opacity="0.35">
            <rect width="22" height="11.333" rx="2.667" stroke="none"/>
            <rect x="0.5" y="0.5" width="21" height="10.333" rx="2.167" fill="none"/>
          </g>
          <path id="Cap" d="M0,0V4A2.17,2.17,0,0,0,1.328,2,2.17,2.17,0,0,0,0,0" transform="translate(23 3.667)" fill="#fff" opacity="0.4"/>
          <rect id="Capacity" width="18" height="7.333" rx="1.333" transform="translate(2 2)" fill="#fff"/>
        </g>
        <path id="Wifi" d="M7.637,10.966a.313.313,0,0,1-.221-.093l-2-2.016a.313.313,0,0,1,.01-.456,3.421,3.421,0,0,1,4.419,0,.311.311,0,0,1,.1.226.315.315,0,0,1-.094.23l-2,2.016A.308.308,0,0,1,7.637,10.966Zm3.508-3.538a.312.312,0,0,1-.214-.085,4.9,4.9,0,0,0-6.585,0,.312.312,0,0,1-.214.085.308.308,0,0,1-.22-.091L2.758,6.17a.322.322,0,0,1,0-.459,7.158,7.158,0,0,1,9.752,0,.322.322,0,0,1,.1.229.326.326,0,0,1-.094.23L11.364,7.337A.309.309,0,0,1,11.145,7.428ZM13.8,4.743a.3.3,0,0,1-.214-.087,8.64,8.64,0,0,0-11.907,0,.3.3,0,0,1-.214.087.308.308,0,0,1-.22-.091L.094,3.486a.322.322,0,0,1,0-.456,10.9,10.9,0,0,1,15.08,0,.325.325,0,0,1,.1.228.319.319,0,0,1-.094.229L14.023,4.652A.307.307,0,0,1,13.8,4.743Z" transform="translate(22 0)" fill="#fff"/>
        <path id="Cellular_Connection" data-name="Cellular Connection" d="M16,10.667H15a1,1,0,0,1-1-1V1a1,1,0,0,1,1-1h1a1,1,0,0,1,1,1V9.667A1,1,0,0,1,16,10.667Zm-4.667,0h-1a1,1,0,0,1-1-1V3.334a1,1,0,0,1,1-1h1a1,1,0,0,1,1,1V9.667A1,1,0,0,1,11.334,10.667Zm-4.667,0h-1a1,1,0,0,1-1-1v-4a1,1,0,0,1,1-1h1a1,1,0,0,1,1,1v4A1,1,0,0,1,6.666,10.667ZM2,10.667H1a1,1,0,0,1-1-1v-2a1,1,0,0,1,1-1H2a1,1,0,0,1,1,1v2A1,1,0,0,1,2,10.667Z" transform="translate(0 1)" fill="#fff"/>
      </g>
      <g id="Time_Style" data-name="Time Style" transform="translate(15 6)">
        <rect id="Time_Style_background" data-name="Time Style background" width="54" height="21" fill="rgba(0,0,0,0)"/>
        <text id="_Time" data-name="↳ Time" transform="translate(0 2)" fill="#fff" font-size="12" font-family="Poppins-Regular, Poppins"><tspan x="3.108" y="13" letter-spacing="-0.02em">9:4</tspan><tspan y="13">1</tspan></text>
      </g>
    </g>
  </g>
</svg>
